<svg xmlns="http://www.w3.org/2000/svg" xmlns:xlink="http://www.w3.org/1999/xlink" width="62" height="66" viewBox="0 0 62 66">
    <defs>
        <path id="adc04a43na" d="M30.068.059H1.932C.867.059 0 .925 0 1.99v19.427c0 1.065.867 1.931 1.932 1.931h9.641v1.406c0 1.289-1.048 2.337-2.337 2.337H7.111c-.407 0-.737.33-.737.738 0 .407.33.737.737.737H24.89c.407 0 .737-.33.737-.737 0-.408-.33-.738-.737-.738h-2.125c-1.289 0-2.337-1.048-2.337-2.337v-1.406h9.641c1.065 0 1.932-.866 1.932-1.931V1.99C32 .925 31.133.06 30.068.06zM12.245 27.09c.503-.646.804-1.457.804-2.337V23.35h5.902v1.405c0 .88.301 1.691.804 2.337h-7.51zm18.28-5.674c0 .251-.205.456-.457.456H1.932c-.252 0-.457-.205-.457-.456V17.54h29.05v3.877zm0-5.353H1.475V1.99c0-.251.205-.456.457-.456h28.136c.252 0 .457.205.457.456v14.074z"/>
    </defs>
    <g fill="none" fill-rule="evenodd">
        <g>
            <g>
                <g transform="translate(-598 -898) translate(156 709) translate(442 189)">
                    <rect width="61" height="65" x=".5" y=".5" stroke="#E8F0FB" rx="16"/>
                    <g>
                        <path fill="#34AADD" fill-opacity=".3" d="M1 1H31V22H1z" transform="translate(15 19)"/>
                        <path fill="#E8F3FF" fill-rule="nonzero" d="M20.31.003c2.063.09 1.953 2.995-.11 2.995h-8.343c-4.778 0-8.652 3.624-8.652 8.095V23.35h-.641C1.148 23.349 0 22.274 0 20.95V2.399C0 1.074 1.148 0 2.564 0 2.68 0 20.217 0 20.31.003z" transform="translate(15 19)"/>
                        <path fill="#293478" fill-opacity=".3" fill-rule="nonzero" d="M32 18.531v2.848c0 1.325-1.148 2.399-2.564 2.399H2.564C1.148 23.778 0 22.704 0 21.379v-2.848h32z" transform="translate(15 19)"/>
                        <g fill-rule="nonzero" transform="translate(15 19)">
                            <use fill="#00B2D1" xlink:href="#adc04a43na"/>
                            <use fill="#293478" xlink:href="#adc04a43na"/>
                        </g>
                    </g>
                </g>
            </g>
        </g>
    </g>
</svg>
