<?xml version="1.0" encoding="utf-8"?>
<svg width="149px" height="60px" viewBox="0 0 149 60" version="1.1"
    xmlns:xlink="http://www.w3.org/1999/xlink"
    xmlns="http://www.w3.org/2000/svg">
    <defs>
        <path d="M0 0L30.8208 0L30.8208 36.1231L0 36.1231L0 0Z" transform="translate(0 0.017428571)" id="path_1" />
        <clipPath id="mask_1">
            <use xlink:href="#path_1" />
        </clipPath>
    </defs>
    <g id="Group-34">
        <path d="M8.35048 0L5.11738 7.33548L1.63381 0L0 0L4.49857 9.43524L4.90167 9.43524L9.08762 0L8.35048 0Z" transform="translate(0.106933594 50.326477)" id="Fill-1" fill="#34AADD" fill-rule="evenodd" stroke="none" />
        <path d="M6.98095 0L6.98095 6.74452L6.91143 6.74452L0.869048 0L0 0L0 9.21976L0.702381 9.21976L0.702381 1.94L0.757857 1.94L7.30095 9.43524L7.66238 9.43524L7.66238 0L6.98095 0Z" transform="translate(14.407349 50.326477)" id="Fill-2" fill="#34AADD" fill-rule="evenodd" stroke="none" />
        <path d="M0 0.813333L3.38619 0.813333L3.38619 0L0 0L0 0.813333Z" transform="translate(30.690735 55.81952)" id="Fill-3" fill="#34AADD" fill-rule="evenodd" stroke="none" />
        <g id="Group-33">
            <path d="M3.37238 9.05976C3.59952 9.05976 3.82429 9.02857 4.04691 8.96571C4.26929 8.90333 4.46857 8.81071 4.64476 8.68786C4.82071 8.565 4.96214 8.41429 5.06881 8.23595C5.17548 8.05738 5.22881 7.85 5.22881 7.61357C5.22881 7.33071 5.15571 7.07952 5.00976 6.85929C4.86381 6.63905 4.67238 6.43738 4.43619 6.25429C4.19976 6.07119 3.92952 5.89857 3.62595 5.73619C3.32262 5.57405 3.0131 5.4119 2.69786 5.24952C2.38262 5.08714 2.0731 4.91714 1.76976 4.73857C1.46595 4.56024 1.19595 4.36071 0.959524 4.14048C0.723333 3.92048 0.531905 3.67476 0.385952 3.40357C0.24 3.13214 0.166905 2.82071 0.166905 2.46833C0.166905 2.11619 0.233095 1.78929 0.365238 1.48786C0.497143 1.1869 0.690714 0.925952 0.945714 0.705714C1.20048 0.485476 1.51476 0.313095 1.88786 0.187619C2.26095 0.062619 2.68857 0 3.17071 0C3.60619 0 3.99571 0.0464286 4.33881 0.139048C4.6819 0.231905 4.9831 0.368571 5.24262 0.549286C5.50214 0.730238 5.72238 0.952619 5.9031 1.2169C6.08405 1.48095 6.23 1.7869 6.34119 2.13452L5.54857 2.49619C5.45571 2.21333 5.33762 1.955 5.19405 1.72095C5.05024 1.4869 4.87881 1.28643 4.67952 1.11929C4.48 0.952619 4.24952 0.82381 3.98762 0.733571C3.72571 0.643095 3.43024 0.598095 3.10119 0.598095C2.80905 0.598095 2.55405 0.638571 2.33619 0.719762C2.11833 0.800714 1.93643 0.907381 1.79048 1.03929C1.64452 1.17167 1.53548 1.32 1.46357 1.48452C1.3919 1.64905 1.35595 1.81714 1.35595 1.98857C1.35595 2.22952 1.43 2.45095 1.57833 2.65262C1.72667 2.85429 1.92381 3.04429 2.16952 3.22262C2.415 3.40119 2.69429 3.57381 3.00738 3.74071C3.32024 3.90762 3.63881 4.0769 3.96333 4.24833C4.28762 4.42 4.60643 4.59833 4.91952 4.78357C5.23238 4.96905 5.51143 5.17191 5.75714 5.39214C6.00286 5.61238 6.19976 5.85333 6.34833 6.11524C6.49643 6.37714 6.57071 6.67048 6.57071 6.99476C6.57071 7.36095 6.50119 7.70524 6.36214 8.02714C6.2231 8.34952 6.01452 8.62976 5.73643 8.86857C5.45833 9.10738 5.11286 9.29619 4.70048 9.43524C4.28762 9.57429 3.8081 9.64381 3.26119 9.64381C2.81619 9.64381 2.41976 9.59524 2.07214 9.49786C1.72452 9.40048 1.41738 9.25929 1.15071 9.07381C0.884286 8.88833 0.655952 8.66238 0.465952 8.39571C0.275952 8.12929 0.120476 7.82476 0 7.48143L0.827619 7.14071C0.924762 7.44214 1.05571 7.71095 1.22024 7.94738C1.38476 8.18357 1.57619 8.38429 1.79405 8.54881C2.0119 8.71333 2.25405 8.83952 2.52048 8.92762C2.78714 9.01571 3.07095 9.05976 3.37238 9.05976" transform="translate(41.87381 50.117954)" id="Fill-4" fill="#34AADD" fill-rule="evenodd" stroke="none" />
            <path d="M1.32452 5.0131C1.32452 7.06381 2.43524 8.90095 4.38643 8.90095C6.35167 8.90095 7.46262 7.09214 7.46262 4.91333C7.46262 3.00476 6.46571 1.01119 4.40071 1.01119C2.35 1.01119 1.32452 2.90524 1.32452 5.0131M8.77286 4.85643C8.77286 8.16048 6.76476 9.91214 4.31524 9.91214C1.78024 9.91214 0 7.94667 0 5.04143C0 1.99381 1.89429 0 4.45762 0C7.07809 0 8.77286 2.0081 8.77286 4.85643" transform="translate(55.699474 49.790787)" id="Fill-6" fill="#34AADD" fill-rule="evenodd" stroke="none" />
            <path d="M0 0L5.16952 0L5.16952 1.03976L1.23905 1.03976L1.23905 4.23L4.87071 4.23L4.87071 5.25524L1.23905 5.25524L1.23905 9.59881L0 9.59881L0 0Z" transform="translate(71.91855 49.947334)" id="Fill-8" fill="#34AADD" fill-rule="evenodd" stroke="none" />
            <path d="M2.91952 1.05405L0 1.05405L0 0L7.10667 0L7.10667 1.05405L4.17286 1.05405L4.17286 9.59905L2.91952 9.59905L2.91952 1.05405Z" transform="translate(83.595024 49.947285)" id="Fill-10" fill="#34AADD" fill-rule="evenodd" stroke="none" />
            <path d="M2.43548 9.59881L0 0L1.31024 0L2.44976 4.85643C2.73452 6.05262 2.99071 7.24905 3.16167 8.17476L3.19024 8.17476C3.3469 7.22048 3.64595 6.08119 3.97333 4.84214L5.25524 0L6.55119 0L7.71881 4.87071C7.98952 6.01 8.24595 7.14929 8.38833 8.16048L8.41667 8.16048C8.61619 7.10643 8.8869 6.03833 9.18595 4.84214L10.4533 0L11.7207 0L9.00071 9.59881L7.70476 9.59881L6.49429 4.6C6.19524 3.37524 5.99571 2.43524 5.86762 1.4669L5.83905 1.4669C5.6681 2.42119 5.45452 3.36119 5.09857 4.6L3.73119 9.59881L2.43548 9.59881Z" transform="translate(97.307785 49.94743)" id="Fill-12" fill="#34AADD" fill-rule="evenodd" stroke="none" />
            <path d="M5.42619 5.61119L4.48619 2.84833C4.27238 2.2219 4.13024 1.65214 3.98762 1.09667L3.95929 1.09667C3.81667 1.66643 3.66 2.25024 3.475 2.83405L2.535 5.61119L5.42619 5.61119ZM2.27857 6.57952L1.2819 9.59881L0 9.59881L3.26143 0L4.75667 0L8.03214 9.59881L6.70786 9.59881L5.68238 6.57952L2.27857 6.57952Z" transform="translate(114.523544 49.94743)" id="Fill-14" fill="#34AADD" fill-rule="evenodd" stroke="none" />
            <path d="M1.23905 4.57167L2.50643 4.57167C3.83095 4.57167 4.67119 3.84524 4.67119 2.74881C4.67119 1.50976 3.77381 0.968333 2.46381 0.954286C1.86571 0.954286 1.43833 1.01119 1.23905 1.0681L1.23905 4.57167ZM0 0.199524C0.626667 0.0711905 1.52381 0 2.37833 0C3.70286 0 4.55738 0.242143 5.15548 0.783333C5.63952 1.21048 5.91024 1.86571 5.91024 2.60619C5.91024 3.87357 5.11286 4.71405 4.10143 5.05571L4.10143 5.09857C4.84214 5.35476 5.28357 6.03833 5.51143 7.03548C5.82476 8.37405 6.05262 9.29952 6.25214 9.67L4.97024 9.67C4.81381 9.39929 4.6 8.57357 4.32929 7.37714C4.04452 6.05286 3.5319 5.55429 2.40667 5.51143L1.23905 5.51143L1.23905 9.67L0 9.67L0 0.199524Z" transform="translate(129.80305 49.87624)" id="Fill-16" fill="#34AADD" fill-rule="evenodd" stroke="none" />
            <path d="M4.97024 5.09857L1.23905 5.09857L1.23905 8.55929L5.39762 8.55929L5.39762 9.59881L0 9.59881L0 0L5.18381 0L5.18381 1.03976L1.23905 1.03976L1.23905 4.07309L4.97024 4.07309L4.97024 5.09857Z" transform="translate(143.30214 49.947357)" id="Fill-18" fill="#34AADD" fill-rule="evenodd" stroke="none" />
            <g id="Group-22" transform="translate(0 5.2380953)">
                <path d="M0 0L30.8208 0L30.8208 36.1231L0 36.1231L0 0Z" transform="translate(0 0.017428571)" id="Clip-21" fill="none" fill-rule="evenodd" stroke="none" />
                <g clip-path="url(#mask_1)">
                    <path d="M22.0281 14.9662L8.79309 14.9662L8.79309 0L0 0L0 36.1231L8.79309 36.1231L8.79309 20.3643L22.0281 20.3643L22.0281 36.1231L30.821 36.1231L30.821 0L22.0281 0L22.0281 14.9662Z" transform="translate(-0.00014285714 0.017428571)" id="Fill-20" fill="#293478" fill-rule="evenodd" stroke="none" />
                </g>
            </g>
            <path d="M0 1.97071L0 29.111L8.27238 29.111L8.27238 0L4.8581 0L0 1.97071Z" transform="translate(36.89495 12.26781)" id="Fill-23" fill="#293478" fill-rule="evenodd" stroke="none" />
            <path d="M7.69452 1.32048C7.28381 0.91 6.80357 0.585238 6.26643 0.355C5.71667 0.119524 5.12524 0 4.50833 0C3.89143 0 3.29976 0.119524 2.74905 0.355C2.21214 0.585714 1.73167 0.910476 1.32095 1.32095C0.91 1.73214 0.585 2.21286 0.355476 2.74905C0.119524 3.29929 0 3.89071 0 4.50786C0 5.125 0.119524 5.71667 0.355238 6.26643C0.585714 6.80405 0.910714 7.28476 1.32048 7.69452C1.73119 8.10548 2.21214 8.43048 2.74929 8.66071C3.29905 8.89619 3.89071 9.01571 4.50833 9.01571C5.12571 9.01571 5.71762 8.89619 6.26643 8.66095C6.80357 8.43071 7.28429 8.10595 7.695 7.695C8.10571 7.28429 8.43048 6.80405 8.66143 6.26595C8.89667 5.71619 9.01619 5.12476 9.01619 4.50786C9.01619 3.89119 8.89667 3.29976 8.66095 2.74905C8.43095 2.21286 8.10619 1.73214 7.69452 1.32048" transform="translate(36.49826 0.1512381)" id="Fill-25" fill="#293478" fill-rule="evenodd" stroke="none" />
            <path d="M0 5.39833L11.8933 5.39833L11.8933 36.1231L20.6862 36.1231L20.6862 5.39833L32.5798 5.39833L32.5798 0L0 0L0 5.39833Z" transform="translate(47.673523 5.255619)" id="Fill-27" fill="#293478" fill-rule="evenodd" stroke="none" />
            <path d="M0 36.1231L26.1131 36.1231L26.1131 30.7252L8.79286 30.7252L8.79286 19.274L20.3893 19.274L20.3893 13.876L8.79286 13.876L8.79286 5.39833L26.1131 5.39833L26.1131 0L0 0L0 36.1231Z" transform="translate(82.38764 5.255595)" id="Fill-29" fill="#293478" fill-rule="evenodd" stroke="none" />
            <path d="M14.1195 15.5098L32.5207 0L23.8581 0L8.7931 12.691L8.7931 0L0 0L0 36.1231L8.7931 36.1231L8.7931 21.5179L24.7871 36.1231L36.6657 36.1231L14.1195 15.5098Z" transform="translate(111.72517 5.2555714)" id="Fill-31" fill="#293478" fill-rule="evenodd" stroke="none" />
        </g>
    </g>
</svg>
