<svg xmlns="http://www.w3.org/2000/svg" xmlns:xlink="http://www.w3.org/1999/xlink" width="124" height="51" viewBox="0 0 124 51">
    <defs>
        <path id="blazs966ua" d="M7.327 4.38V16.85h11.03V4.38h7.327v30.102h-7.327V21.35H7.327v13.132H0V4.38h7.327zm30.312 5.843v24.26h-6.893V11.864l4.048-1.642h2.845zM66.878 4.38v4.498h-9.912v25.604H49.64V8.878h-9.911V4.38h27.15zm23.54 0v4.498H75.983v7.065h9.663v4.498h-9.663v9.543h14.433v4.498h-21.76V4.38h21.76zm10.014 0v10.575L112.986 4.38h7.219L104.87 17.304l18.788 17.178h-9.899l-13.328-12.17v12.17h-7.328V4.38h7.328zM34.172.126c.514 0 1.007.1 1.465.296.448.192.848.462 1.19.804.343.343.614.744.806 1.19.196.46.296.953.296 1.467 0 .514-.1 1.007-.296 1.465-.192.448-.463.848-.805 1.19-.343.343-.743.614-1.19.805-.458.197-.951.296-1.466.296s-1.008-.1-1.466-.296c-.447-.192-.848-.462-1.19-.805-.342-.341-.613-.742-.805-1.19-.196-.458-.296-.951-.296-1.465 0-.515.1-1.008.296-1.466.192-.447.463-.848.805-1.19.342-.342.743-.613 1.19-.805.459-.196.952-.296 1.466-.296z"/>
    </defs>
    <g fill="none" fill-rule="evenodd">
        <g>
            <g>
                <g>
                    <path fill="#34AADD" d="M7.048 42.011L4.354 48.124 1.451 42.011.089 42.011 3.838 49.874 4.174 49.874 7.662 42.011zM17.824 42.011L17.824 47.632 17.766 47.632 12.73 42.011 12.006 42.011 12.006 49.694 12.591 49.694 12.591 43.628 12.638 43.628 18.09 49.874 18.391 49.874 18.391 42.011zM25.576 47.266L28.397 47.266 28.397 46.589 25.576 46.589z" transform="translate(-152 -3055) translate(0 2970) translate(152 85)"/>
                    <g>
                        <path fill="#34AADD" d="M37.705 49.315c.19 0 .377-.026.562-.079.186-.052.352-.129.498-.231.147-.103.265-.228.354-.377.089-.149.133-.321.133-.518 0-.236-.06-.445-.182-.629s-.282-.352-.478-.504c-.197-.153-.423-.297-.676-.432-.252-.135-.51-.27-.773-.405-.263-.136-.52-.277-.773-.426-.254-.149-.479-.315-.676-.499-.196-.183-.356-.388-.478-.614-.121-.226-.182-.485-.182-.78 0-.293.055-.565.165-.816.11-.251.271-.468.484-.652.212-.183.474-.327.785-.432.311-.104.667-.156 1.07-.156.362 0 .687.039.973.116.285.077.536.191.753.342.216.15.4.336.55.556.15.22.273.475.365.765l-.66.301c-.078-.236-.176-.45-.296-.646-.12-.195-.262-.362-.429-.501-.166-.14-.358-.247-.576-.322-.218-.075-.465-.113-.739-.113-.243 0-.456.034-.637.102-.182.067-.333.156-.455.266-.122.11-.213.234-.273.371-.06.137-.09.277-.09.42 0 .2.063.385.186.553.124.169.288.327.493.475.204.15.437.293.698.432.26.14.526.28.797.423.27.143.536.292.796.446.261.155.494.324.698.507.205.184.37.385.493.603.124.218.185.463.185.733 0 .305-.057.592-.173.86-.116.269-.29.502-.522.701-.232.2-.52.357-.863.473-.344.116-.744.173-1.2.173-.37 0-.7-.04-.99-.121-.29-.081-.546-.199-.768-.354-.222-.154-.413-.342-.57-.565-.16-.222-.289-.475-.39-.762l.69-.283c.081.25.19.475.328.672.137.197.296.364.478.501.181.137.383.242.605.316.222.073.459.11.71.11M47.52 45.67c0 1.709.926 3.24 2.552 3.24 1.637 0 2.563-1.508 2.563-3.323 0-1.59-.83-3.252-2.552-3.252-1.708 0-2.563 1.578-2.563 3.335m6.207-.13c0 2.753-1.673 4.212-3.715 4.212-2.112 0-3.596-1.637-3.596-4.058 0-2.54 1.579-4.202 3.715-4.202 2.184 0 3.596 1.674 3.596 4.047M59.932 41.623L64.24 41.623 64.24 42.489 60.965 42.489 60.965 45.148 63.991 45.148 63.991 46.002 60.965 46.002 60.965 49.622 59.932 49.622zM72.095 42.501L69.663 42.501 69.663 41.623 75.585 41.623 75.585 42.501 73.14 42.501 73.14 49.622 72.095 49.622zM83.12 49.622l-2.03-8h1.092l.95 4.048c.237.997.45 1.994.593 2.765h.023c.13-.795.38-1.744.653-2.777l1.068-4.035h1.08l.973 4.059c.226.95.44 1.899.558 2.741h.024c.166-.878.392-1.768.64-2.765l1.057-4.035h1.056l-2.267 7.999h-1.08l-1.008-4.166c-.25-1.02-.416-1.804-.522-2.61h-.024c-.143.795-.32 1.578-.617 2.61l-1.14 4.166h-1.08zM99.958 46.299l-.783-2.303c-.178-.522-.297-.996-.416-1.46h-.023c-.12.476-.25.962-.404 1.449l-.783 2.314h2.41zm-2.623.807l-.83 2.516h-1.069l2.718-8H99.4l2.73 8h-1.104l-.854-2.516h-2.837zM109.202 45.373h1.056c1.104 0 1.804-.605 1.804-1.519 0-1.032-.748-1.484-1.84-1.495-.498 0-.854.047-1.02.095v2.92zm-1.033-3.643c.522-.107 1.27-.166 1.982-.166 1.104 0 1.816.201 2.314.652.404.356.63.902.63 1.52 0 1.056-.665 1.756-1.508 2.04v.036c.617.214.985.783 1.175 1.614.261 1.116.451 1.887.617 2.196h-1.068c-.13-.226-.308-.914-.534-1.91-.237-1.104-.665-1.52-1.602-1.556h-.973v3.466h-1.033V41.73zM123.56 45.872L120.451 45.872 120.451 48.756 123.916 48.756 123.916 49.622 119.418 49.622 119.418 41.623 123.738 41.623 123.738 42.489 120.451 42.489 120.451 45.017 123.56 45.017z" transform="translate(-152 -3055) translate(0 2970) translate(152 85) translate(0 .072)"/>
                        <g transform="translate(-152 -3055) translate(0 2970) translate(152 85) translate(0 .072)">
                            <use fill="#293478" xlink:href="#blazs966ua"/>
                            <use fill="#FFF" xlink:href="#blazs966ua"/>
                        </g>
                    </g>
                </g>
            </g>
        </g>
    </g>
</svg>
