<svg xmlns="http://www.w3.org/2000/svg" xmlns:xlink="http://www.w3.org/1999/xlink" width="62" height="66" viewBox="0 0 62 66">
    <defs>
        <path id="iyi1sh1jva" d="M20.83.585H3.206C1.438.585 0 1.93 0 3.583v29.98c0 1.654 1.438 2.999 3.205 2.999H20.83c1.767 0 3.204-1.345 3.204-2.998V3.583c0-1.653-1.437-2.998-3.204-2.998zm0 34.777H3.206c-1.06 0-1.923-.806-1.923-1.798V3.583c0-.992.863-1.799 1.923-1.799H20.83c1.06 0 1.922.807 1.922 1.799v26.533H4.406c-.353 0-.64.268-.64.6 0 .33.287.6.64.6h18.347v2.248c0 .992-.862 1.798-1.922 1.798zm-7.37-2.173c0 .331-.287.6-.641.6h-1.603c-.353 0-.64-.269-.64-.6 0-.331.287-.6.64-.6h1.603c.354 0 .64.269.64.6z"/>
    </defs>
    <g fill="none" fill-rule="evenodd">
        <g>
            <g>
                <g transform="translate(-198 -898) translate(156 709) translate(42 189)">
                    <rect width="61" height="65" x=".5" y=".5" stroke="#E8F0FB" rx="16"/>
                    <g fill-rule="nonzero">
                        <path fill="#34AADD" fill-opacity=".3" d="M20.83 1.185c1.417 0 2.565 1.074 2.565 2.398v29.98c0 1.325-1.148 2.4-2.564 2.4H3.205c-1.416 0-2.564-1.075-2.564-2.4V3.584c0-1.324 1.148-2.398 2.564-2.398H20.83z" transform="translate(19 15)"/>
                        <path fill="#E8F3FF" d="M20.952 1.187c2.062.09 1.952 2.996-.112 2.996H12.5c-4.78 0-8.653 3.624-8.653 8.094v23.685h-.641c-1.416 0-2.564-1.074-2.564-2.398V3.583c0-1.325 1.148-2.399 2.564-2.399.116 0 17.653 0 17.747.003z" transform="translate(19 15)"/>
                        <path fill="#293478" fill-opacity=".3" d="M23.395 30.716v2.848c0 1.324-1.148 2.398-2.564 2.398H3.205c-1.416 0-2.564-1.074-2.564-2.398v-2.848h22.754z" transform="translate(19 15)"/>
                        <path fill="#D1E7FF" d="M3.846 30.716v2.857c0 1.953-3.205 2.053-3.205-.01v-2.847h3.205z" transform="translate(19 15)"/>
                        <g transform="translate(19 15)">
                            <use fill="#00B2D1" xlink:href="#iyi1sh1jva"/>
                            <use fill="#293478" xlink:href="#iyi1sh1jva"/>
                        </g>
                    </g>
                </g>
            </g>
        </g>
    </g>
</svg>
