<svg xmlns="http://www.w3.org/2000/svg" xmlns:xlink="http://www.w3.org/1999/xlink" width="62" height="66" viewBox="0 0 62 66">
    <defs>
        <path id="dlkvutt4ea" d="M29.656.031h-1.641c-.259 0-.469.21-.469.469s.21.469.469.469h1.641c.776 0 1.407.63 1.407 1.406v2.156H.938V2.375c0-.775.63-1.406 1.406-1.406h23.613c.259 0 .469-.21.469-.469s-.21-.469-.47-.469H2.345C1.05.031 0 1.083 0 2.375v5.168c0 .258.21.468.469.468s.469-.21.469-.468V5.469h30.125v12.085c0 .26.21.469.468.469.26 0 .469-.21.469-.469V2.375C32 1.083 30.949.031 29.656.031z"/>
        <path id="rr2nmpnkpb" d="M31.531 19.062c-.259 0-.468.21-.468.469v1.219c0 .775-.631 1.406-1.407 1.406H2.344c-.776 0-1.406-.63-1.406-1.406V9.554c0-.259-.21-.469-.47-.469-.258 0-.468.21-.468.47V20.75c0 1.292 1.051 2.344 2.344 2.344h27.312c1.293 0 2.344-1.052 2.344-2.344v-1.22c0-.258-.21-.468-.469-.468z"/>
        <path id="vgkz0up3kc" d="M11.142 8.792c.092-.242.363-.364.605-.272.242.092.363.363.272.605L8.688 17.9c-.071.187-.25.302-.439.302-.055 0-.111-.01-.166-.03-.242-.092-.364-.363-.272-.605zm-5.025 1.424c.183-.183.48-.183.663 0 .183.183.183.48 0 .663l-2.485 2.486 2.448 2.448c.183.183.183.48 0 .663-.092.091-.212.137-.332.137-.12 0-.24-.046-.331-.137l-2.78-2.78c-.088-.088-.137-.207-.137-.332 0-.124.05-.243.137-.331zm6.93 0c.183-.183.48-.183.663 0l2.817 2.817c.087.088.137.207.137.331 0 .125-.05.244-.137.332l-2.78 2.78c-.092.091-.212.137-.332.137-.12 0-.24-.046-.331-.137-.183-.184-.183-.48 0-.663l2.448-2.449-2.485-2.485c-.183-.183-.183-.48 0-.663z"/>
        <path id="pyny5ix0td" d="M3.47 1.367c.775 0 1.405.63 1.405 1.406 0 .776-.63 1.406-1.406 1.406-.775 0-1.406-.63-1.406-1.406 0-.775.63-1.406 1.406-1.406zm3.634 0c.776 0 1.406.63 1.406 1.406 0 .776-.63 1.406-1.406 1.406-.775 0-1.406-.63-1.406-1.406 0-.775.63-1.406 1.406-1.406zm3.635 0c.775 0 1.406.63 1.406 1.406 0 .776-.63 1.406-1.406 1.406-.775 0-1.406-.63-1.406-1.406 0-.775.63-1.406 1.406-1.406zm-7.27.937c-.258 0-.469.21-.469.47 0 .258.21.468.47.468.258 0 .468-.21.468-.469 0-.258-.21-.469-.469-.469zm3.635 0c-.258 0-.469.21-.469.47 0 .258.21.468.47.468.258 0 .468-.21.468-.469 0-.258-.21-.469-.469-.469zm3.635 0c-.258 0-.469.21-.469.47 0 .258.21.468.47.468.258 0 .468-.21.468-.469 0-.258-.21-.469-.469-.469z"/>
    </defs>
    <g fill="none" fill-rule="evenodd">
        <g>
            <g>
                <g transform="translate(-998 -898) translate(156 709) translate(842 189)">
                    <rect width="61" height="65" x=".5" y=".5" stroke="#E8F0FB" rx="16"/>
                    <rect width="32" height="23" x="15" y="21" fill="#34AADD" fill-opacity=".3" rx="3"/>
                    <path fill="#E8F3FF" fill-rule="nonzero" d="M35.31 21.003c2.063.09 1.953 2.995-.11 2.995h-8.343c-4.778 0-8.652 3.624-8.652 8.095v12.255h-.641c-1.416 0-2.564-1.073-2.564-2.398V23.399C15 22.074 16.148 21 17.564 21c.116 0 17.653-.001 17.747.003z"/>
                    <g fill-rule="nonzero">
                        <g transform="translate(15 21)">
                            <use fill="#000" xlink:href="#dlkvutt4ea"/>
                            <use fill="#00B2D1" xlink:href="#dlkvutt4ea"/>
                            <use fill="#293478" xlink:href="#dlkvutt4ea"/>
                        </g>
                        <g transform="translate(15 21)">
                            <use fill="#000" xlink:href="#rr2nmpnkpb"/>
                            <use fill="#00B2D1" xlink:href="#rr2nmpnkpb"/>
                            <use fill="#293478" xlink:href="#rr2nmpnkpb"/>
                        </g>
                        <g transform="translate(15 21)">
                            <use fill="#000" xlink:href="#vgkz0up3kc"/>
                            <use fill="#00B2D1" xlink:href="#vgkz0up3kc"/>
                            <use fill="#293478" xlink:href="#vgkz0up3kc"/>
                        </g>
                        <g transform="translate(15 21)">
                            <use fill="#000" xlink:href="#pyny5ix0td"/>
                            <use fill="#00B2D1" xlink:href="#pyny5ix0td"/>
                            <use fill="#293478" xlink:href="#pyny5ix0td"/>
                        </g>
                    </g>
                </g>
            </g>
        </g>
    </g>
</svg>
